<?xml version="1.0" standalone="no"?>
<!DOCTYPE svg PUBLIC "-//W3C//DTD SVG 20010904//EN"
 "http://www.w3.org/TR/2001/REC-SVG-20010904/DTD/svg10.dtd">
<svg version="1.0" xmlns="http://www.w3.org/2000/svg"
 width="100.000000pt" height="100.000000pt" viewBox="0 0 100.000000 100.000000"
 preserveAspectRatio="xMidYMid meet">
<metadata>
Created by potrace 1.14, written by Peter Selinger 2001-2017
</metadata>
<g transform="translate(0.000000,100.000000) scale(0.100000,-0.100000)"
fill="#000000" stroke="none">
<path d="M212 909 c-10 -3 -19 -20 -22 -39 -5 -33 -6 -33 -59 -36 -63 -2 -78
-16 -75 -66 2 -18 6 -85 10 -148 3 -63 8 -133 9 -155 2 -22 6 -96 10 -165 9
-173 11 -190 23 -202 13 -13 42 -12 362 7 170 10 180 12 180 44 0 14 9 18 37
19 21 1 42 8 48 15 15 21 12 704 -3 719 -13 13 -485 19 -520 7z"/>
<path d="M825 870 c-6 -10 -6 -261 -1 -525 2 -100 6 -129 26 -173 12 -29 28
-51 34 -49 6 2 22 26 35 53 24 49 24 49 23 368 -1 175 -5 322 -8 327 -7 12
-101 11 -109 -1z"/>
</g>
</svg>
